<?xml version="1.0" standalone="no"?><!DOCTYPE svg PUBLIC "-//W3C//DTD SVG 1.1//EN" "http://www.w3.org/Graphics/SVG/1.1/DTD/svg11.dtd"><svg t="1709102798294" class="icon" viewBox="0 0 1024 1024" version="1.1" xmlns="http://www.w3.org/2000/svg" p-id="4365" xmlns:xlink="http://www.w3.org/1999/xlink" width="200" height="200"><path d="M511.7 1024c-249.5-0.3-451.6-202.9-451.3-452.4 0.3-205.4 139-384.7 337.7-436.6v-21.4C398.1 50.9 449 0 511.7 0s113.6 50.9 113.6 113.6V135c47.9 12.5 93.5 32.8 134.8 60.1 82.4 54.4 144.9 134.3 177.8 227.4 82.7 235.4-41.2 493.3-276.6 576-48.1 16.9-98.7 25.5-149.6 25.5z m0-848.8c-219.3 0-397 177.8-397 397s177.8 397 397 397 397-177.7 397-397c-0.2-219.1-177.9-396.7-397-397z m0-54.7c19.7 0 39.3 1.3 58.9 3.8v-10.7c0-32.5-26.4-58.9-58.9-58.9s-58.9 26.4-58.9 58.9v10.7c19.5-2.5 39.2-3.8 58.9-3.8z m0 785.7c-184.5 0-334-149.5-334-334s149.5-334 334-334 334 149.5 334 334c-0.2 184.4-149.6 333.9-334 334z m0-613.3c-154.2 0-279.3 125-279.3 279.3s125 279.3 279.3 279.3c154.2 0 279.2-125 279.3-279.2-0.2-154.2-125.2-279.1-279.3-279.4zM374.6 733.1c-1.8 0-3.6-0.2-5.3-0.5-1.8-0.4-3.5-0.9-5.1-1.6-1.7-0.7-3.2-1.5-4.7-2.5s-2.9-2.1-4.2-3.4c-1.3-1.3-2.4-2.7-3.4-4.2s-1.8-3.1-2.5-4.7-1.2-3.4-1.6-5.1c-0.7-3.5-0.7-7.2 0-10.7 0.3-1.8 0.9-3.5 1.6-5.1 0.7-1.7 1.5-3.2 2.5-4.7 2-3 4.6-5.6 7.6-7.6s6.3-3.4 9.9-4.1c3.5-0.7 7.2-0.7 10.7 0 3.5 0.7 6.9 2.1 9.9 4.1 3 2 5.6 4.6 7.6 7.6 1 1.5 1.8 3.1 2.5 4.7s1.2 3.4 1.6 5.1c0.7 3.5 0.7 7.2 0 10.7-0.3 1.8-0.9 3.5-1.6 5.1-0.7 1.6-1.5 3.2-2.5 4.7s-2.1 2.9-3.4 4.2c-1.3 1.3-2.7 2.4-4.2 3.4s-3.1 1.8-4.7 2.5c-1.7 0.7-3.4 1.2-5.1 1.6-2 0.3-3.8 0.5-5.6 0.5z m61.6-60c-15.1 0-27.4-12.3-27.4-27.4 0-7.4 3-14.5 8.3-19.6l62.7-61-49.5-133.9c-5.2-14.2 2-29.9 16.2-35.2 14.2-5.2 29.9 2 35.2 16.2l49.1 132.7h48.5c15.1 0.3 27.2 12.7 26.9 27.8-0.3 14.8-12.2 26.7-26.9 26.9h-56.4l-67.5 65.7c-5.2 5-12 7.8-19.2 7.8z m225.1-73.4c-1.8 0-3.6-0.2-5.3-0.5-1.8-0.4-3.5-0.9-5.1-1.6-1.7-0.7-3.2-1.5-4.7-2.5s-2.9-2.1-4.2-3.4c-1.3-1.3-2.4-2.7-3.4-4.2s-1.8-3.1-2.5-4.7c-0.7-1.7-1.2-3.4-1.6-5.1-0.7-3.5-0.7-7.2 0-10.7 0.4-1.8 0.9-3.5 1.6-5.2 0.7-1.7 1.5-3.2 2.5-4.7s2.1-2.9 3.4-4.2c1.3-1.3 2.7-2.4 4.2-3.4s3.1-1.8 4.7-2.5 3.4-1.2 5.1-1.6c5.3-1.1 10.8-0.5 15.8 1.6 1.6 0.7 3.2 1.5 4.7 2.5s2.9 2.1 4.2 3.4c1.3 1.3 2.4 2.7 3.4 4.2s1.8 3.1 2.5 4.7c0.7 1.7 1.2 3.4 1.6 5.2 0.7 3.5 0.7 7.2 0 10.7-0.3 1.8-0.9 3.5-1.6 5.1-0.7 1.7-1.5 3.2-2.5 4.7-2 3-4.6 5.6-7.6 7.6-1.5 1-3.1 1.8-4.7 2.5-1.7 0.7-3.4 1.2-5.1 1.6-1.8 0.3-3.6 0.4-5.4 0.5z" fill="#1296db" p-id="4366"></path></svg>